<svg height="512" viewBox="0 0 512 512" width="512" xmlns="http://www.w3.org/2000/svg"><g id="Snowflake-5" data-name="Snowflake"><g id="Flat"><g fill="#80deea"><path d="m180.931 219a7.962 7.962 0 0 1 -4.27-1.241l-49.938-31.595a8 8 0 1 1 8.554-13.522l49.939 31.6a8 8 0 0 1 -4.285 14.758z"/><path d="m131.007 337.4a8 8 0 0 1 -4.065-14.9l49.938-29.4a8 8 0 1 1 8.12 13.8l-49.939 29.4a7.965 7.965 0 0 1 -4.054 1.1z"/><path d="m256 184a8 8 0 0 1 -8-8v-48a8 8 0 0 1 16 0v48a8 8 0 0 1 -8 8z"/><path d="m358.678 374.194a8 8 0 0 1 -7.335-4.8l-28.9-66.187a8 8 0 0 1 6.6-11.168l71.921-6.589a8 8 0 1 1 1.46 15.934l-60.884 5.576 24.466 56.031a8.006 8.006 0 0 1 -7.328 11.2z"/><path d="m152.033 374.194a8 8 0 0 1 -7.327-11.2l24.466-56.031-60.884-5.577a8 8 0 1 1 1.46-15.934l71.92 6.589a8 8 0 0 1 6.6 11.168l-28.9 66.187a8 8 0 0 1 -7.335 4.798z"/><path d="m401.7 225.584q-.367 0-.739-.033l-71.921-6.589a8 8 0 0 1 -6.6-11.168l28.9-66.187a8 8 0 0 1 14.663 6.4l-24.463 56.033 60.884 5.577a8 8 0 0 1 -.721 15.967z"/><path d="m109.008 225.584a8 8 0 0 1 -.72-15.967l60.884-5.577-24.466-56.031a8 8 0 0 1 14.663-6.4l28.9 66.187a8 8 0 0 1 -6.6 11.168l-71.92 6.589c-.249.02-.496.031-.741.031z"/><path d="m168 264.333h-40a8 8 0 1 1 0-16h40a8 8 0 0 1 0 16z"/><path d="m384 264.333h-40a8 8 0 1 1 0-16h40a8 8 0 0 1 0 16z"/><path d="m212.224 184a8 8 0 0 1 -6.907-3.951l-30-51.1a8 8 0 1 1 13.8-8.1l30 51.1a8 8 0 0 1 -6.893 12.051z"/><path d="m329.791 395.1a8 8 0 0 1 -6.906-3.951l-30-51.1a8 8 0 1 1 13.8-8.1l30 51.1a8 8 0 0 1 -6.892 12.052z"/><path d="m299.776 184a8 8 0 0 1 -6.891-12.051l30-51.1a8 8 0 1 1 13.8 8.1l-30 51.1a8 8 0 0 1 -6.909 3.951z"/><path d="m182.209 395.1a8 8 0 0 1 -6.892-12.052l30-51.1a8 8 0 1 1 13.8 8.1l-30 51.1a8 8 0 0 1 -6.908 3.952z"/><path d="m256 392a8 8 0 0 1 -8-8v-48a8 8 0 0 1 16 0v48a8 8 0 0 1 -8 8z"/></g><circle cx="156" cy="428" fill="#b2ebf2" r="28"/><circle cx="356" cy="428" fill="#b2ebf2" r="28"/><path d="m380.993 337.4a7.96 7.96 0 0 1 -3.974-1.062l-51.227-29.4a8 8 0 0 1 7.962-13.878l51.227 29.4a8 8 0 0 1 -3.988 14.94z" fill="#80deea"/><path d="m329.781 219a8 8 0 0 1 -4.208-14.81l51.227-31.6a8 8 0 1 1 8.4 13.618l-51.227 31.6a7.967 7.967 0 0 1 -4.192 1.192z" fill="#80deea"/><path d="m455.94 382.584a8.042 8.042 0 0 1 -1.069-.071l-62.346-8.394a8 8 0 0 1 -6.264-4.727l-16.751-38.363a8 8 0 0 1 6.6-11.168l41.685-3.819a8 8 0 0 1 7.162 3.209l37.411 50.575a8 8 0 0 1 -6.43 12.758z" fill="#b2ebf2"/><path d="m54.771 382.584a8 8 0 0 1 -6.43-12.758l37.411-50.575a8 8 0 0 1 7.162-3.209l41.685 3.819a8 8 0 0 1 6.6 11.168l-16.749 38.363a8 8 0 0 1 -6.264 4.727l-62.346 8.394a8.042 8.042 0 0 1 -1.069.071z" fill="#b2ebf2"/><path d="m418.528 194.991q-.363 0-.731-.033l-41.685-3.819a8 8 0 0 1 -6.6-11.168l16.751-38.363a8 8 0 0 1 6.264-4.727l62.346-8.394a8 8 0 0 1 7.5 12.687l-37.411 50.575a8 8 0 0 1 -6.434 3.242z" fill="#b2ebf2"/><path d="m92.183 194.991a8 8 0 0 1 -6.431-3.242l-37.411-50.575a8 8 0 0 1 7.5-12.687l62.346 8.394a8 8 0 0 1 6.264 4.727l16.749 38.363a8 8 0 0 1 -6.6 11.168l-41.685 3.819q-.368.033-.732.033z" fill="#b2ebf2"/><path d="m256 136a8 8 0 0 1 -7.519-5.266l-32-88a8 8 0 0 1 1.862-8.391l32-32a8 8 0 0 1 11.314 0l32 32a8 8 0 0 1 1.862 8.391l-32 88a8 8 0 0 1 -7.519 5.266z" fill="#b2ebf2"/><path d="m256 512a7.976 7.976 0 0 1 -5.657-2.343l-32-32a8 8 0 0 1 -1.862-8.391l32-88a8 8 0 0 1 15.038 0l32 88a8 8 0 0 1 -1.862 8.391l-32 32a7.976 7.976 0 0 1 -5.657 2.343z" fill="#b2ebf2"/><circle cx="156" cy="84" fill="#b2ebf2" r="28"/><circle cx="356" cy="84" fill="#b2ebf2" r="28"/><path d="m40 296a8 8 0 0 1 -5.659-2.343l-32-32a8 8 0 0 1 0-11.314l32-32a8.005 8.005 0 0 1 8.391-1.862l88 32a8 8 0 0 1 0 15.038l-88 32a8 8 0 0 1 -2.732.481z" fill="#b2ebf2"/><path d="m472 296a8 8 0 0 1 -2.733-.481l-88-32a8 8 0 0 1 0-15.038l88-32a8 8 0 0 1 8.391 1.862l32 32a8 8 0 0 1 0 11.314l-32 32a8 8 0 0 1 -5.658 2.343z" fill="#b2ebf2"/><path d="m300 344h-88a8 8 0 0 1 -7.01-4.145l-44-80a8 8 0 0 1 0-7.71l44-80a8 8 0 0 1 7.01-4.145h88a8 8 0 0 1 7.01 4.145l44 80a8 8 0 0 1 0 7.71l-44 80a8 8 0 0 1 -7.01 4.145z" fill="#e0f7fa"/><path d="m351.01 252.145-34.1-62a252.649 252.649 0 0 1 -114.968 144.168l3.048 5.542a8 8 0 0 0 7.01 4.145h88a8 8 0 0 0 7.01-4.145l44-80a8 8 0 0 0 0-7.71z" fill="#b2ebf2"/><path d="m282.262 312h-52.524a8 8 0 0 1 -6.8-3.787l-29.739-48a8 8 0 0 1 0-8.426l29.739-48a8 8 0 0 1 6.8-3.787h52.524a8 8 0 0 1 6.8 3.787l29.738 48a8 8 0 0 1 0 8.426l-29.738 48a8 8 0 0 1 -6.8 3.787z" fill="#80deea"/><path d="m302.788 225.941a252.935 252.935 0 0 1 -68.416 86.059h47.89a8 8 0 0 0 6.8-3.787l29.738-48a8 8 0 0 0 0-8.426z" fill="#4dd0e1"/><circle cx="240" cy="232" fill="#e0f7fa" r="16"/><circle cx="244" cy="276" fill="#e0f7fa" r="12"/><circle cx="244" cy="36" fill="#e0f7fa" r="12"/><circle cx="36" cy="244" fill="#e0f7fa" r="12"/><circle cx="428" cy="252" fill="#e0f7fa" r="12"/><path d="m509.657 250.343-26.085-26.085a92.249 92.249 0 0 1 -53.222 57.109l38.916 14.152a8 8 0 0 0 8.391-1.862l32-32a8 8 0 0 0 0-11.314z" fill="#80deea"/><path d="m130.734 248.481-42.5-15.453a92.19 92.19 0 0 1 -62.212 52.311l8.317 8.318a8 8 0 0 0 8.391 1.862l88-32a8 8 0 0 0 0-15.038z" fill="#80deea"/><path d="m141.2 179.971-16.75-38.363a7.976 7.976 0 0 0 -2.232-2.943 65.165 65.165 0 0 1 -51.04 33.381l14.574 19.7a8 8 0 0 0 6.431 3.242q.363 0 .731-.033l41.685-3.819a8 8 0 0 0 6.6-11.168z" fill="#80deea"/><path d="m462.825 132.345a8.008 8.008 0 0 0 -7.954-3.858l-28.733 3.869c.116 1.59.2 3.191.2 4.811a65.127 65.127 0 0 1 -31.338 55.702l22.793 2.089q.367.033.731.033a8 8 0 0 0 6.431-3.242l37.411-50.575a8 8 0 0 0 .459-8.829z" fill="#80deea"/><path d="m140.756 323.757a8 8 0 0 0 -6.157-3.9l-21.01-1.924a85.168 85.168 0 0 1 -41.369 62.375l45.966-6.189a8 8 0 0 0 6.264-4.727l16.75-38.363a8 8 0 0 0 -.444-7.272z" fill="#80deea"/><path d="m462.37 369.826-31.179-42.149a49.173 49.173 0 0 1 -45.574 40.24l.644 1.475a8 8 0 0 0 6.264 4.727l62.346 8.394a8 8 0 0 0 7.5-12.687z" fill="#80deea"/><path d="m293.657 34.343-9.546-9.543a108.241 108.241 0 0 1 -50.52 64.988l14.89 40.949a8 8 0 0 0 15.038 0l32-88a8 8 0 0 0 -1.862-8.394z" fill="#80deea"/><path d="m283.28 435.61a108.04 108.04 0 0 1 -64.917 42.066l31.98 31.981a8 8 0 0 0 11.314 0l32-32a8 8 0 0 0 1.862-8.391z" fill="#80deea"/><path d="m166.105 57.9a27.983 27.983 0 0 1 -36.21 36.21 28 28 0 1 0 36.21-36.21z" fill="#80deea"/><path d="m366.105 57.9a27.983 27.983 0 0 1 -36.21 36.21 28 28 0 1 0 36.21-36.21z" fill="#80deea"/><path d="m166.105 401.9a27.983 27.983 0 0 1 -36.21 36.21 28 28 0 1 0 36.21-36.21z" fill="#80deea"/><path d="m366.105 401.9a27.983 27.983 0 0 1 -36.21 36.21 28 28 0 1 0 36.21-36.21z" fill="#80deea"/></g></g></svg>