<svg height="512pt" viewBox="0 0 512 512" width="512pt" xmlns="http://www.w3.org/2000/svg"><path d="m512 256c0 141.386719-114.613281 256-256 256s-256-114.613281-256-256 114.613281-256 256-256 256 114.613281 256 256zm0 0" fill="#ff583e"/><path d="m507.410156 304.394531-78.628906-78.628906-8.777344 11.730469-95.496094-95.496094-241.289062 243 121.945312 121.945312c16.429688 3.308594 33.429688 5.054688 50.835938 5.054688 124.835938 0 228.785156-89.363281 251.410156-207.605469zm0 0" fill="#c10000"/><path d="m83.21875 225.765625h345.5625v159.234375h-345.5625zm0 0" fill="#fff"/><path d="m255.90625 225.765625h172.875v159.234375h-172.875zm0 0" fill="#e9edf5"/><path d="m187.492188 142h137.015624v243h-137.015624zm0 0" fill="#ffce00"/><path d="m255.90625 142h68.601562v243h-68.601562zm0 0" fill="#ff9500"/><path d="m267.847656 180.316406v63.953125h-17.667968v-41.90625c-2.863282 2.171875-5.628907 3.929688-8.300782 5.273438-2.675781 1.34375-6.027344 2.632812-10.058594 3.859375v-14.324219c5.945313-1.914063 10.566407-4.21875 13.855469-6.90625 3.285157-2.6875 5.859375-6.003906 7.71875-9.949219zm0 0" fill="#ff583e"/><path d="m255.90625 180.316406h11.941406v63.953125h-11.941406zm0 0" fill="#e80e03"/><path d="m163.386719 327.269531h-52.414063c.601563-5.175781 2.421875-10.042969 5.46875-14.605469s8.757813-9.945312 17.136719-16.148437c5.117187-3.804687 8.390625-6.691406 9.820313-8.664063 1.429687-1.972656 2.144531-3.847656 2.144531-5.621093 0-1.914063-.707031-3.550781-2.121094-4.910157-1.417969-1.359374-3.195313-2.039062-5.339844-2.039062-2.230469 0-4.054687.703125-5.46875 2.105469-1.417969 1.398437-2.367187 3.875-2.855469 7.417969l-17.5-1.414063c.6875-4.917969 1.945313-8.757813 3.773438-11.519531 1.832031-2.757813 4.414062-4.875 7.742188-6.347656 3.332031-1.472657 7.945312-2.207032 13.835937-2.207032 6.148437 0 10.929687.699219 14.347656 2.101563 3.414063 1.398437 6.105469 3.550781 8.0625 6.453125s2.9375 6.15625 2.9375 9.757812c0 3.832032-1.121093 7.492188-3.367187 10.980469-2.242188 3.488281-6.324219 7.320313-12.246094 11.496094-3.515625 2.429687-5.867188 4.132812-7.054688 5.105469-1.1875.972656-2.582031 2.242187-4.183593 3.816406h27.28125zm0 0" fill="#ff583e"/><path d="m366.203125 282.574219-16.515625-2.960938c1.375-5.257812 4.011719-9.292969 7.914062-12.09375 3.902344-2.800781 9.429688-4.203125 16.578126-4.203125 8.207031 0 14.140624 1.527344 17.800781 4.589844 3.660156 3.058594 5.488281 6.902344 5.488281 11.535156 0 2.71875-.742188 5.175782-2.230469 7.378906-1.484375 2.203126-3.730469 4.132813-6.730469 5.789063 2.429688.601563 4.289063 1.300781 5.574219 2.101563 2.085938 1.289062 3.710938 2.980468 4.867188 5.085937 1.160156 2.101563 1.738281 4.609375 1.738281 7.527344 0 3.660156-.957031 7.167969-2.875 10.527343-1.914062 3.363282-4.671875 5.949219-8.277344 7.765626-3.601562 1.816406-8.335937 2.722656-14.195312 2.722656-5.722656 0-10.230469-.671875-13.535156-2.015625-3.300782-1.34375-6.019532-3.308594-8.148438-5.894531-2.128906-2.589844-3.765625-5.839844-4.910156-9.757813l17.457031-2.316406c.6875 3.515625 1.75 5.953125 3.195313 7.3125 1.445312 1.359375 3.28125 2.035156 5.511718 2.035156 2.34375 0 4.296875-.855469 5.855469-2.570313 1.558594-1.71875 2.335937-4.003906 2.335937-6.863281 0-2.917969-.75-5.175781-2.25-6.777343-1.5-1.601563-3.539062-2.402344-6.113281-2.402344-1.371093 0-3.257812.34375-5.660156 1.027344l.898437-12.480469c.972657.144531 1.730469.214843 2.273438.214843 2.285156 0 4.195312-.730468 5.726562-2.1875 1.527344-1.460937 2.292969-3.1875 2.292969-5.191406 0-1.914062-.570312-3.445312-1.714843-4.589844-1.144532-1.144531-2.714844-1.714843-4.71875-1.714843-2.058594 0-3.730469.621093-5.019532 1.867187-1.285156 1.242188-2.15625 3.421875-2.613281 6.539063zm0 0" fill="#e80e03"/></svg>